<svg width="16" height="12" viewBox="0 0 16 12" fill="none" xmlns="http://www.w3.org/2000/svg">
<path d="M1 5.25C0.585786 5.25 0.25 5.58579 0.25 6C0.25 6.41421 0.585786 6.75 1 6.75V5.25ZM15.566 6.53033C15.8589 6.23744 15.8589 5.76256 15.566 5.46967L10.793 0.696699C10.5001 0.403806 10.0253 0.403806 9.73237 0.696699C9.43948 0.989593 9.43948 1.46447 9.73237 1.75736L13.975 6L9.73237 10.2426C9.43948 10.5355 9.43948 11.0104 9.73237 11.3033C10.0253 11.5962 10.5001 11.5962 10.793 11.3033L15.566 6.53033ZM1 6.75L15.0357 6.75V5.25L1 5.25V6.75Z" fill="#070909"/>
</svg>
