<svg width="32" height="32" viewBox="0 0 32 32" fill="none" xmlns="http://www.w3.org/2000/svg">
<rect width="32" height="32" rx="16" fill="white"/>
<path d="M19.2001 9.6001H12.8001C11.0328 9.6001 9.6001 11.0328 9.6001 12.8001V19.2001C9.6001 20.9674 11.0328 22.4001 12.8001 22.4001H19.2001C20.9674 22.4001 22.4001 20.9674 22.4001 19.2001V12.8001C22.4001 11.0328 20.9674 9.6001 19.2001 9.6001Z" stroke="#070909" stroke-width="1.2" stroke-linecap="round" stroke-linejoin="round"/>
<path d="M16.0001 18.4001C17.3256 18.4001 18.4001 17.3256 18.4001 16.0001C18.4001 14.6746 17.3256 13.6001 16.0001 13.6001C14.6746 13.6001 13.6001 14.6746 13.6001 16.0001C13.6001 17.3256 14.6746 18.4001 16.0001 18.4001Z" stroke="#070909" stroke-width="1.2" stroke-linecap="round" stroke-linejoin="round"/>
<path d="M19.6001 12.3999V12.4009" stroke="#070909" stroke-width="1.2" stroke-linecap="round" stroke-linejoin="round"/>
</svg>
