<svg width="88" height="78" viewBox="0 0 88 78" fill="none" xmlns="http://www.w3.org/2000/svg">
<path d="M54.0088 54.3263L53.0918 54.9765L53.2073 56.0947C53.2423 56.434 53.2603 56.779 53.2603 57.1287V65.7491C53.2603 71.2318 48.8157 75.6765 43.3329 75.6765C37.8502 75.6765 33.4055 71.2318 33.4055 65.7491V57.1287C33.4055 56.5953 33.4474 56.0729 33.5278 55.5645L33.7033 54.4538L32.8222 53.7552C28.7347 50.514 26.1187 45.5108 26.1187 39.8955C26.1187 30.1325 34.0331 22.218 43.7961 22.218C53.5591 22.218 61.4735 30.1325 61.4735 39.8955C61.4735 45.8517 58.5296 51.1205 54.0088 54.3263Z" stroke="#FBAF00" stroke-width="3.85112"/>
<circle cx="43.9716" cy="40.0708" r="11.4507" fill="#FBAF00"/>
<rect x="16.5773" y="39.1273" width="5.3457" height="16.2058" rx="2.67285" transform="rotate(89.8303 16.5773 39.1273)" fill="#FBAF00"/>
<rect width="5.3457" height="16.2058" rx="2.67285" transform="matrix(-0.00296265 0.999996 0.999996 0.00296265 71.3798 39.1273)" fill="#FBAF00"/>
<rect x="20.7463" y="26.6869" width="5.3457" height="16.2058" rx="2.67285" transform="rotate(136.157 20.7463 26.6869)" fill="#FBAF00"/>
<rect x="35.7451" y="11.6881" width="5.3457" height="16.2058" rx="2.67285" transform="rotate(136.157 35.7451 11.6881)" fill="#FBAF00"/>
<rect width="5.3457" height="16.2058" rx="2.67285" transform="matrix(0.721236 0.692689 0.692689 -0.721236 67.4248 26.6869)" fill="#FBAF00"/>
<rect width="5.3457" height="16.2058" rx="2.67285" transform="matrix(0.721236 0.692689 0.692689 -0.721236 48.0147 12.5704)" fill="#FBAF00"/>
<rect width="5.3457" height="16.2058" rx="2.67285" transform="matrix(0.721236 0.692689 0.692689 -0.721236 5.45126 64.7844)" fill="#FBAF00"/>
<rect x="82.5059" y="64.7844" width="5.3457" height="16.2058" rx="2.67285" transform="rotate(136.157 82.5059 64.7844)" fill="#FBAF00"/>
</svg>
