<svg width="33" height="32" viewBox="0 0 33 32" fill="none" xmlns="http://www.w3.org/2000/svg">
<rect x="0.799805" width="32" height="32" rx="16" fill="white"/>
<path d="M21.7997 8.40039H10.9997C10.0056 8.40039 9.19971 9.20628 9.19971 10.2004V21.0004C9.19971 21.9945 10.0056 22.8004 10.9997 22.8004H21.7997C22.7938 22.8004 23.5997 21.9945 23.5997 21.0004V10.2004C23.5997 9.20628 22.7938 8.40039 21.7997 8.40039Z" stroke="#070909" stroke-width="2" stroke-linecap="round" stroke-linejoin="round"/>
<path d="M12.7998 14.6997V19.1997" stroke="#070909" stroke-width="2" stroke-linecap="round" stroke-linejoin="round"/>
<path d="M12.7998 11.9995V12.0098" stroke="#070909" stroke-width="2" stroke-linecap="round" stroke-linejoin="round"/>
<path d="M16.3994 19.1997V14.6997" stroke="#070909" stroke-width="2" stroke-linecap="round" stroke-linejoin="round"/>
<path d="M19.9994 19.1997V16.4997C19.9994 16.0223 19.8098 15.5645 19.4722 15.2269C19.1346 14.8893 18.6768 14.6997 18.1994 14.6997C17.722 14.6997 17.2642 14.8893 16.9266 15.2269C16.5891 15.5645 16.3994 16.0223 16.3994 16.4997" stroke="#070909" stroke-width="2" stroke-linecap="round" stroke-linejoin="round"/>
</svg>
