<svg width="81" height="81" viewBox="0 0 81 81" fill="none" xmlns="http://www.w3.org/2000/svg">
<rect width="81" height="81" rx="40.5" fill="#FBAF00"/>
<rect x="9.46753" y="9.46753" width="62.0649" height="62.0649" rx="31.0325" fill="#FFF7DB"/>
<path fill-rule="evenodd" clip-rule="evenodd" d="M36.2175 24.3133C36.6768 24.0865 37.2329 24.2318 37.5226 24.6543L44.1628 34.3352V25.2373C44.1628 24.8792 44.3486 24.5468 44.6536 24.3593C44.9586 24.1719 45.339 24.1563 45.6583 24.3182L55.6632 29.3904C55.6671 29.3924 55.6711 29.3944 55.6751 29.3965C56.1505 29.6454 56.4485 30.1378 56.4485 30.6746V50.6475C56.4485 51.0378 56.2281 51.3945 55.8792 51.5691L45.6533 56.6841C45.2128 56.9045 44.678 56.782 44.3772 56.3919L35.9968 45.5234V55.7625C35.9968 56.1312 35.8 56.4717 35.4806 56.6556C35.1612 56.8395 34.768 56.8386 34.4494 56.6534L25.8554 51.6575C25.4112 51.3993 25.1379 50.9242 25.1379 50.4103V30.4251C25.1379 30.033 25.3605 29.6748 25.712 29.5012L36.2175 24.3133Z" fill="#FBAF00"/>
</svg>
