<svg width="32" height="32" viewBox="0 0 32 32" fill="none" xmlns="http://www.w3.org/2000/svg">
<rect width="32" height="32" rx="16" fill="white"/>
<path d="M11.5557 24.8892L16.0001 14.8892" stroke="#070909" stroke-width="1.66667" stroke-linecap="round" stroke-linejoin="round"/>
<path d="M14.5554 18.2218C15.041 19.6251 16.1443 20.444 17.3888 20.444C19.6899 20.444 21.5554 18.7173 21.5554 15.9996C21.5564 15.1883 21.3796 14.3866 21.0376 13.6509C20.6956 12.9152 20.1966 12.2634 19.5756 11.7412C18.9547 11.219 18.227 10.8392 17.4435 10.6283C16.6601 10.4175 15.84 10.3809 15.0409 10.5209C14.2417 10.661 13.483 10.9743 12.8179 11.439C12.1529 11.9037 11.5977 12.5084 11.1913 13.2106C10.785 13.9128 10.5374 14.6955 10.4659 15.5037C10.3945 16.3118 10.5009 17.1258 10.7777 17.8885" stroke="#070909" stroke-width="1.66667" stroke-linecap="round" stroke-linejoin="round"/>
<path d="M16 26C21.5228 26 26 21.5228 26 16C26 10.4772 21.5228 6 16 6C10.4772 6 6 10.4772 6 16C6 21.5228 10.4772 26 16 26Z" stroke="#070909" stroke-width="1.66667" stroke-linecap="round" stroke-linejoin="round"/>
</svg>
