<svg width="74" height="74" viewBox="0 0 74 74" fill="none" xmlns="http://www.w3.org/2000/svg">
<path d="M73.5701 0.416978C73.1752 0.027321 72.5915 -0.102757 72.0693 0.0842663L12.0377 21.4889C9.95214 20.2136 7.30678 19.915 4.88053 20.9196C0.853162 22.588 -1.06636 27.2218 0.601821 31.2494C4.53582 40.7463 10.2158 49.2472 17.4844 56.5158C24.753 63.7845 33.2538 69.4646 42.7508 73.3984C43.7371 73.8069 44.7593 74.0002 45.7659 74.0002C48.8697 74.0001 51.8209 72.1609 53.0805 69.1196C53.928 67.0733 53.8479 64.8709 53.0372 62.9799L73.9222 1.91331C74.1017 1.38837 73.965 0.806779 73.5701 0.416978ZM21.1273 21.3168L27.4896 19.0485C28.2365 19.8443 28.6006 20.9399 28.4548 22.0478C28.3261 23.0234 27.8255 23.8908 27.0449 24.4898C26.2642 25.0889 25.2976 25.3478 24.3213 25.2196C23.3459 25.0911 22.4787 24.5906 21.8796 23.8098C21.3276 23.0905 21.065 22.2129 21.1273 21.3168ZM50.4098 68.0132C49.3516 70.5682 46.4115 71.7859 43.857 70.7273C25.3512 63.0621 10.9381 48.6488 3.27262 30.143C2.75996 28.9054 2.75996 27.5423 3.27262 26.3046C3.78527 25.067 4.74915 24.1031 5.98677 23.5904C7.2244 23.0778 8.58762 23.0778 9.82524 23.5904C11.0629 24.1031 12.0267 25.067 12.5394 26.3046C15.8204 34.2259 20.5581 41.3163 26.6209 47.3791C32.6838 53.4419 39.7742 58.1795 47.6955 61.4607C50.2505 62.5188 51.4682 65.4584 50.4098 68.0132ZM63.2504 24.1843C63.1196 24.1811 62.9887 24.1736 62.858 24.1565C61.8826 24.0281 61.0154 23.5274 60.4164 22.7468C59.8174 21.9662 59.5582 20.9988 59.6866 20.0234C59.9518 18.0095 61.8054 16.587 63.82 16.8518C64.4415 16.9336 65.025 17.1747 65.5226 17.5413L63.2504 24.1843ZM66.4833 14.7311C65.7791 14.3476 65.0055 14.0922 64.1972 13.9859C60.6026 13.5114 57.2938 16.0518 56.8206 19.6462C56.5914 21.3872 57.0539 23.1133 58.123 24.5066C59.1528 25.8486 60.627 26.7253 62.29 26.9927L59.4173 35.3927L56.1136 32.8576C55.4804 32.372 54.5729 32.4911 54.0871 33.1244C53.6012 33.7578 53.7207 34.665 54.3539 35.1509L58.4304 38.2789L50.959 60.1255C50.3323 59.5806 49.6107 59.1248 48.8023 58.7899C33.4849 52.4451 21.5553 40.5155 15.2108 25.1983C14.9902 24.6656 14.7162 24.171 14.4001 23.7154L18.2705 22.3355C18.4056 23.5015 18.8533 24.6138 19.5865 25.5693C20.6554 26.9626 22.2032 27.8561 23.9442 28.0852C24.2359 28.1236 24.5267 28.1427 24.816 28.1427C26.2538 28.1427 27.6448 27.673 28.8047 26.7831C30.1981 25.7139 31.0914 24.1664 31.3208 22.4251C31.5265 20.862 31.1617 19.3137 30.3426 18.0312L48.3089 11.6252L48.9898 13.2691C49.2205 13.8257 49.7585 14.1618 50.3257 14.1618C50.51 14.1618 50.6973 14.1262 50.8782 14.0513C51.6156 13.746 51.9658 12.9003 51.6604 12.1629L51.0352 10.6533L70.2173 3.81375L66.4833 14.7311Z" fill="#FBAF00"/>
<path d="M15.6092 38.7741C15.6049 38.7673 15.5929 38.749 15.5883 38.7423C15.1457 38.0785 14.25 37.9003 13.5859 38.3424C12.9229 38.7838 12.7431 39.6798 13.1819 40.3439C13.4587 40.7691 13.9218 41.0011 14.3949 41.0011C14.6625 41.0011 14.9332 40.9268 15.1749 40.7714C15.8464 40.3397 16.0408 39.4455 15.6092 38.7741Z" fill="#FBAF00"/>
<path d="M45.2285 18.4981C44.9421 18.4602 44.6511 18.4412 44.3638 18.4412C41.0805 18.4412 38.2809 20.8989 37.8519 24.1581C37.3787 27.7523 39.9177 31.0615 43.5119 31.5347C43.7984 31.5726 44.0893 31.5917 44.3766 31.5917C47.6598 31.5917 50.4594 29.1339 50.8885 25.8744C51.3616 22.2804 48.8226 18.9713 45.2285 18.4981ZM48.0227 25.4972C47.7822 27.3236 46.2148 28.7009 44.3766 28.7009C44.2151 28.7009 44.051 28.6902 43.8893 28.6688C41.8752 28.4036 40.4528 26.5494 40.7178 24.5353C40.9583 22.709 42.5256 21.3319 44.3638 21.3319C44.5254 21.3319 44.6894 21.3426 44.8511 21.364C46.865 21.6294 48.2878 23.4834 48.0227 25.4972Z" fill="#FBAF00"/>
<path d="M44.8524 36.4759C44.5658 36.438 44.275 36.4189 43.9877 36.4189C40.7044 36.4189 37.9048 38.8767 37.4758 42.136C37.2465 43.8772 37.709 45.6032 38.7781 46.9966C39.847 48.3899 41.3947 49.2834 43.1358 49.5128C43.4221 49.5505 43.7129 49.5695 44.0001 49.5695C47.2835 49.5695 50.0832 47.1117 50.5123 43.8522C50.9856 40.2583 48.4465 36.9494 44.8524 36.4759ZM47.6467 43.4751C47.4062 45.3016 45.8386 46.6788 44.0004 46.6788C43.839 46.6788 43.6749 46.668 43.5133 46.6467C42.5378 46.5181 41.6706 46.0174 41.0715 45.2368C40.4724 44.4562 40.2133 43.489 40.3417 42.5133C40.5822 40.687 42.1497 39.3097 43.9877 39.3097C44.1493 39.3097 44.3133 39.3204 44.4751 39.3418C46.4888 39.607 47.9116 41.4612 47.6467 43.4751Z" fill="#FBAF00"/>
<path d="M13.411 35.1838C12.0026 32.7143 10.7365 30.1298 9.64801 27.5023C9.34262 26.7647 8.49667 26.4149 7.75971 26.7203C7.02216 27.0257 6.67211 27.8712 6.97765 28.6086C8.11222 31.3476 9.43208 34.0417 10.9002 36.6158C11.1669 37.0832 11.6548 37.3454 12.1569 37.3454C12.3998 37.3454 12.6459 37.2841 12.8716 37.1553C13.565 36.7597 13.8066 35.8771 13.411 35.1838Z" fill="#FBAF00"/>
<path d="M35.3197 30.488L30.8774 29.9031C30.0864 29.798 29.3599 30.3559 29.2557 31.1472C29.1514 31.9387 29.7085 32.6647 30.4999 32.7689L34.9422 33.3538C35.0062 33.3623 35.0698 33.3664 35.1327 33.3664C35.8468 33.3664 36.468 32.8369 36.5637 32.1097C36.6682 31.3183 36.1112 30.5922 35.3197 30.488Z" fill="#FBAF00"/>
<path d="M33.0672 41.1544L32.6749 38.1736C32.5707 37.3822 31.8449 36.8248 31.0534 36.9293C30.262 37.0335 29.705 37.7594 29.8092 38.5508L30.2016 41.5317C30.2972 42.2591 30.9183 42.7885 31.6326 42.7885C31.6954 42.7885 31.759 42.7845 31.8229 42.7759C32.6144 42.6717 33.1714 41.9459 33.0672 41.1544Z" fill="#FBAF00"/>
</svg>
