<svg width="33" height="32" viewBox="0 0 33 32" fill="none" xmlns="http://www.w3.org/2000/svg">
<rect x="0.600098" width="32" height="32" rx="16" fill="white"/>
<path d="M24.6001 9.68858C23.8001 10.0806 23.0161 10.2398 22.2001 10.4806C21.3033 9.46858 19.9737 9.41258 18.6961 9.89098C17.4185 10.3694 16.5817 11.539 16.6001 12.8806V13.6806C14.0041 13.747 11.6921 12.5646 10.2001 10.4806C10.2001 10.4806 6.8545 16.427 13.4001 19.2806C11.9025 20.2782 10.4089 20.951 8.6001 20.8806C11.2465 22.323 14.1305 22.819 16.6273 22.0942C19.4913 21.2622 21.8449 19.1158 22.7481 15.9006C23.0175 14.9227 23.1513 13.9125 23.1457 12.8982C23.1441 12.699 24.3537 10.6806 24.6001 9.68778V9.68858Z" fill="#070909"/>
</svg>
