<svg width="95" height="95" viewBox="0 0 95 95" fill="none" xmlns="http://www.w3.org/2000/svg">
<path d="M46.1301 53.3131L52.0388 82.0913C52.201 82.8812 53.0041 83.3634 53.7775 83.1351L54.2739 82.9887C54.9672 82.7841 55.3843 82.0782 55.2291 81.3722L48.9439 52.7763M46.1301 53.3131L38.5223 54.1382C38.0564 54.1887 37.5967 53.9988 37.3023 53.6342L34.5508 50.2262M46.1301 53.3131L48.9439 52.7763M34.5508 50.2262L33.5308 54.8104C33.4125 55.3421 32.9919 55.7541 32.4579 55.8614L15.3929 59.2907C14.8178 59.4062 14.2325 59.1448 13.9349 58.6392L9.08056 50.3945M34.5508 50.2262C34.5508 50.2262 34.0277 47.5366 33.5764 43.8879M9.08056 50.3945C9.08056 50.3945 10.2295 35.6254 17.4524 26.7889C23.4548 19.4457 38.132 14.0544 38.132 14.0544M9.08056 50.3945L33.5764 43.8879M38.132 14.0544L44.9471 12.9331M38.132 14.0544C38.132 14.0544 34.0074 23.8034 33.1687 30.4346C32.6548 34.498 33.0704 39.796 33.5764 43.8879M44.9471 12.9331C44.9471 12.9331 64.2283 16.1174 72.7407 24.1512C76.7963 27.9788 81.2671 35.606 81.2671 35.606M44.9471 12.9331C44.9471 12.9331 50.874 21.7493 53.7045 27.9064C55.5597 31.9421 57.829 38.4953 57.829 38.4953M57.829 38.4953L58.1147 44.9747M57.829 38.4953L33.5764 43.8879M57.829 38.4953L81.2671 35.606M58.1147 44.9747L57.4662 49.1489C57.387 49.6583 57.03 50.0809 56.5409 50.2439L48.9439 52.7763M58.1147 44.9747L59.848 48.4141C60.1245 48.9628 60.7312 49.262 61.3349 49.1472L79.0373 45.7831C79.6247 45.6715 80.0729 45.1937 80.1468 44.6004L81.2671 35.606" stroke="#FBAF00" stroke-width="3.55594" stroke-linejoin="round"/>
<path d="M18.1255 27.3773C13.0594 33.5751 11.3152 43.0174 10.7926 46.8762C10.6781 47.7221 11.4584 48.3813 12.2834 48.1621L31.5852 43.0352C32.1834 42.8763 32.5716 42.3004 32.5027 41.6853C32.1106 38.1849 31.8438 33.9656 32.2623 30.6566C32.7566 26.7491 34.5192 21.6382 35.6763 18.5773C36.0596 17.5634 35.0773 16.5671 34.0817 16.9956C29.9439 18.7766 22.0125 22.6219 18.1255 27.3773Z" fill="#FBAF00"/>
</svg>
